<?xml version="1.0" encoding="iso-8859-1"?>
<!-- Generator: Adobe Illustrator 19.0.0, SVG Export Plug-In . SVG Version: 6.00 Build 0)  -->
<svg version="1.1" id="Capa_1" xmlns="http://www.w3.org/2000/svg" xmlns:xlink="http://www.w3.org/1999/xlink" x="0px" y="0px"
	 viewBox="0 0 539.077 539.077" style="enable-background:new 0 0 539.077 539.077;" xml:space="preserve">
<g>
	<g>
		<path d="M176.956,462.392c-15.004,0-29.108-5.835-39.703-16.451L32.316,341.025c-21.891-21.913-21.891-57.536,0-79.427
			L223.239,70.675c4.387-4.387,11.494-4.387,15.881,0l202.154,202.154c3.203,3.203,4.168,8.05,2.435,12.24
			c-1.733,4.19-5.835,6.931-10.375,6.931h-62.734L216.658,445.94C206.053,456.557,191.949,462.392,176.956,462.392z M231.179,94.496
			L48.197,277.479c-13.128,13.139-13.128,34.526,0.011,47.665L153.134,430.06c12.722,12.7,34.888,12.744,47.643,0l157.231-157.231
			c2.106-2.106,4.957-3.29,7.941-3.29h40.273L231.179,94.496z"/>
		<path d="M219.949,247.077c-6.208,0-11.231-5.023-11.231-11.231V56.154c0-18.579-15.113-33.692-33.692-33.692
			s-33.692,15.113-33.692,33.692v123.9c0,6.208-5.023,11.231-11.231,11.231c-6.208,0-11.231-5.023-11.231-11.231v-123.9
			C118.872,25.192,144.064,0,175.026,0s56.154,25.192,56.154,56.154v179.692C231.179,242.054,226.156,247.077,219.949,247.077z"/>
		<path d="M455.795,539.077c-37.158,0-67.385-30.227-67.385-67.385c0-33.21,51.877-119.612,57.777-129.373
			c4.08-6.712,15.135-6.712,19.215,0c5.901,9.761,57.777,96.163,57.777,129.373C523.179,508.85,492.953,539.077,455.795,539.077z
			 M455.795,370.264c-20.312,35.403-44.923,84.011-44.923,101.428c0,24.765,20.158,44.923,44.923,44.923
			c24.765,0,44.923-20.158,44.923-44.923C500.718,454.276,476.107,405.668,455.795,370.264z"/>
	</g>
</g>
<g>
</g>
<g>
</g>
<g>
</g>
<g>
</g>
<g>
</g>
<g>
</g>
<g>
</g>
<g>
</g>
<g>
</g>
<g>
</g>
<g>
</g>
<g>
</g>
<g>
</g>
<g>
</g>
<g>
</g>
</svg>
